<?xml version="1.0" encoding="UTF-8"?>
<svg width="18px" height="21px" viewBox="0 0 18 21" version="1.1" xmlns="http://www.w3.org/2000/svg" xmlns:xlink="http://www.w3.org/1999/xlink">
    <title>Delete Button</title>
    <g id="Page-1" stroke="none" stroke-width="1" fill="none" fill-rule="evenodd">
        <g id="Transaction-1-Copy-6" transform="translate(-352.000000, -115.000000)" fill="#000000" fill-rule="nonzero">
            <g id="Group" transform="translate(351.000000, 115.000000)">
                <g id="delete" transform="translate(1.750000, 0.000000)">
                    <path d="M11.4294314,7.60835041 C11.1577869,7.60835041 10.9376281,7.82850925 10.9376281,8.10015369 L10.9376281,17.3952357 C10.9376281,17.666688 11.1577869,17.8870389 11.4294314,17.8870389 C11.7010758,17.8870389 11.9212347,17.666688 11.9212347,17.3952357 L11.9212347,8.10015369 C11.9212347,7.82850925 11.7010758,7.60835041 11.4294314,7.60835041 Z" id="Path"></path>
                    <path d="M5.62615269,7.60835041 C5.3545082,7.60835041 5.13434941,7.82850925 5.13434941,8.10015369 L5.13434941,17.3952357 C5.13434941,17.666688 5.3545082,17.8870389 5.62615269,17.8870389 C5.89779713,17.8870389 6.11795597,17.666688 6.11795597,17.3952357 L6.11795597,8.10015369 C6.11795597,7.82850925 5.89779713,7.60835041 5.62615269,7.60835041 Z" id="Path"></path>
                    <path d="M1.39664449,6.25185708 L1.39664449,18.3688525 C1.39664449,19.085041 1.65925972,19.7576204 2.11801997,20.2402023 C2.57466698,20.7241291 3.21016908,20.9988473 3.87525615,21 L13.1803279,21 C13.8456071,20.9988473 14.4811091,20.7241291 14.937564,20.2402023 C15.3963243,19.7576204 15.6589396,19.085041 15.6589396,18.3688525 L15.6589396,6.25185708 C16.5708888,6.00979766 17.1618212,5.12877816 17.0398309,4.19300715 C16.9176486,3.25742828 16.1205814,2.55756915 15.1769339,2.55737705 L12.6589396,2.55737705 L12.6589396,1.94262295 C12.6618212,1.42565316 12.4574155,0.92923923 12.0914447,0.564036885 C11.7254739,0.199026639 11.2282915,-0.00422643443 10.7113217,-6.46189173e-05 L6.3442623,-6.46189173e-05 C5.82729251,-0.00422643443 5.33011013,0.199026639 4.96413934,0.564036885 C4.59816856,0.92923923 4.39376282,1.42565316 4.39664449,1.94262295 L4.39664449,2.55737705 L1.87865011,2.55737705 C0.935002574,2.55756915 0.137935475,3.25742828 0.0157530492,4.19300715 C-0.10623718,5.12877816 0.484695197,6.00979766 1.39664449,6.25185708 Z M13.1803279,20.0163934 L3.87525615,20.0163934 C3.03438782,20.0163934 2.38025105,19.2940574 2.38025105,18.3688525 L2.38025105,6.29508197 L14.675333,6.29508197 L14.675333,18.3688525 C14.675333,19.2940574 14.0211962,20.0163934 13.1803279,20.0163934 Z M5.38025105,1.94262295 C5.37698513,1.68653946 5.47765111,1.44006148 5.65938782,1.25928536 C5.84093238,1.07850925 6.08798666,0.979188 6.3442623,0.983606557 L10.7113217,0.983606557 C10.9675973,0.979188 11.2146516,1.07850925 11.3961962,1.25928536 C11.5779329,1.43986938 11.6785989,1.68653946 11.675333,1.94262295 L11.675333,2.55737705 L5.38025105,2.55737705 L5.38025105,1.94262295 Z M1.87865011,3.54098361 L15.1769339,3.54098361 C15.6658555,3.54098361 16.0621798,3.9373079 16.0621798,4.42622951 C16.0621798,4.91515111 15.6658555,5.31147541 15.1769339,5.31147541 L1.87865011,5.31147541 C1.38972846,5.31147541 0.993404213,4.91515111 0.993404213,4.42622951 C0.993404213,3.9373079 1.38972846,3.54098361 1.87865011,3.54098361 Z" id="Shape"></path>
                    <path d="M8.52779203,7.60835041 C8.25614754,7.60835041 8.03598875,7.82850925 8.03598875,8.10015369 L8.03598875,17.3952357 C8.03598875,17.666688 8.25614754,17.8870389 8.52779203,17.8870389 C8.79943648,17.8870389 9.01959531,17.666688 9.01959531,17.3952357 L9.01959531,8.10015369 C9.01959531,7.82850925 8.79943648,7.60835041 8.52779203,7.60835041 Z" id="Path"></path>
                </g>
            </g>
        </g>
    </g>
</svg>