<?xml version="1.0" encoding="UTF-8"?>
<svg width="22px" height="22px" viewBox="0 0 22 22" version="1.1" xmlns="http://www.w3.org/2000/svg" xmlns:xlink="http://www.w3.org/1999/xlink">
    <title>edit button</title>
    <g id="Page-1" stroke="none" stroke-width="1" fill="none" fill-rule="evenodd">
        <g id="Transaction-1-Copy-6" transform="translate(-314.000000, -115.000000)" fill="#000000" fill-rule="nonzero">
            <g id="Group" transform="translate(314.000000, 115.000000)">
                <g id="pen" transform="translate(0.875000, 0.875000)">
                    <path d="M18.3195306,0.87729638 C17.206875,-0.233399344 15.4050679,-0.233399344 14.2924123,0.87729638 L13.2843411,1.89089083 L2.55349548,12.616035 L2.53069005,12.6390187 C2.52516684,12.6445418 2.52516684,12.6504214 2.51928733,12.6504214 C2.50788462,12.6675255 2.49078054,12.6844513 2.47955598,12.7015554 C2.47955598,12.7072568 2.47367647,12.7072568 2.47367647,12.7129581 C2.46227376,12.7300622 2.45675055,12.7414649 2.44516968,12.758569 C2.43964648,12.7642703 2.43964648,12.7697935 2.43394512,12.7756731 C2.42824377,12.7927771 2.42254241,12.8041798 2.4166629,12.8212839 C2.4166629,12.8268071 2.41113969,12.8268071 2.41113969,12.8326866 L0.0302884387,19.9921663 C-0.0395531902,20.1959898 0.013540724,20.4217279 0.166942862,20.5729921 C0.274734186,20.679358 0.420118801,20.7388659 0.57138293,20.738335 C0.633206991,20.7372624 0.694496584,20.7276414 0.753648213,20.7098247 L7.90760465,18.3232721 C7.91312785,18.3232721 7.91312785,18.3232721 7.91900736,18.3177489 C7.93700226,18.3124039 7.95428449,18.3047427 7.97014143,18.2947653 C7.9745956,18.2942308 7.97851526,18.2922709 7.9817223,18.2892421 C7.99864821,18.2778394 8.02145364,18.2662585 8.03855772,18.2548558 C8.05548359,18.2436312 8.07276586,18.2265271 8.08986993,18.2151244 C8.09557129,18.2092449 8.10109445,18.2092449 8.10109445,18.2037217 C8.106974,18.1980204 8.11837672,18.1924972 8.12407808,18.1809163 L19.8629949,6.44199942 C20.9736906,5.32934389 20.9736906,3.52753678 19.8629949,2.4150594 L18.3195306,0.87729638 Z M7.72533937,16.9847002 L3.76111428,13.0206533 L13.6830798,3.09868778 L17.6473049,7.06273472 L7.72533937,16.9847002 Z M3.20273756,14.0743354 L6.66595591,17.5373756 L1.46560518,19.2688066 L3.20273756,14.0743354 Z M19.0599943,5.64452205 L18.4561849,6.25403283 L14.4917817,2.28962954 L15.1014706,1.68029696 C15.7683513,1.0139508 16.849293,1.0139508 17.5163518,1.68029696 L19.0655175,3.22946269 C19.7274095,3.89937219 19.7249152,4.97781958 19.0599943,5.64452205 Z" id="Shape"></path>
                </g>
            </g>
        </g>
    </g>
</svg>