<?xml version="1.0" encoding="UTF-8"?>
<svg width="17px" height="16px" viewBox="0 0 17 16" version="1.1" xmlns="http://www.w3.org/2000/svg" xmlns:xlink="http://www.w3.org/1999/xlink">
    <!-- Generator: sketchtool 64 (101010) - https://sketch.com -->
    <title>CEAE23B6-1391-4CF4-8325-D75228EE7DA4</title>
    <desc>Created with sketchtool.</desc>
    <g id="Page-1" stroke="none" stroke-width="1" fill="none" fill-rule="evenodd">
        <g id="Transaction-2" transform="translate(-118.000000, -180.000000)" fill="#000000" fill-rule="nonzero">
            <g id="Search-Menu" transform="translate(93.000000, 171.000000)">
                <path d="M41.907102,24.4885776 L36.9540721,19.8205264 C38.2174131,18.6723181 39.0000845,17.0894159 39.0000845,15.3436922 C39.0000845,11.8455991 35.8600655,9 32.0000422,9 C28.1400189,9 25,11.8455991 25,15.3436922 C25,18.8417853 28.1400189,21.6873844 32.0000422,21.6873844 C33.6943858,21.6873844 35.2493952,21.1385039 36.4614025,20.227731 L41.4264324,24.9072613 C41.4917662,24.9691878 41.5791,25 41.6667672,25 C41.7501011,25 41.8331016,24.9719065 41.8977686,24.9157195 C42.0304361,24.8000227 42.0344361,24.6088056 41.907102,24.4885776 Z M32.0000422,21.0832232 C28.5076878,21.0832232 25.6666707,18.5085904 25.6666707,15.3436922 C25.6666707,12.1787939 28.5076878,9.60416116 32.0000422,9.60416116 C35.4923966,9.60416116 38.3334138,12.1787939 38.3334138,15.3436922 C38.3334138,18.5085904 35.4920633,21.0832232 32.0000422,21.0832232 Z" id="Shape"></path>
            </g>
        </g>
    </g>
</svg>